<svg viewBox="0 0 374 800" xmlns="http://www.w3.org/2000/svg" preserveAspectRatio="none">
  <defs>
    <style>
      .pattern-line {
        stroke: #5555ff;
        stroke-width: 2;
        fill: none;
      }
    </style>
  </defs>
  
  <rect width="374" height="800" fill="#2a2a3e"/>
  
  <!-- Top left curved patterns -->
  <path class="pattern-line" d="M 0 80 Q 30 100 50 200 Q 60 280 40 380"/>
  <path class="pattern-line" d="M 30 50 Q 50 80 70 160 Q 80 250 60 350"/>
  
  <!-- Top right curved patterns -->
  <path class="pattern-line" d="M 374 80 Q 340 120 300 220 Q 280 300 320 400"/>
  <path class="pattern-line" d="M 350 100 Q 320 150 260 280 Q 230 360 280 450"/>
  
  <!-- Middle curved patterns -->
  <path class="pattern-line" d="M 100 300 Q 140 320 180 380 Q 200 420 160 480"/>
  <path class="pattern-line" d="M 200 280 Q 240 300 280 350 Q 300 380 260 420"/>
  
  <!-- Bottom left curved patterns -->
  <path class="pattern-line" d="M 0 480 Q 40 520 80 580 Q 100 620 60 680"/>
  <path class="pattern-line" d="M 50 500 Q 80 540 120 600 Q 140 650 100 720"/>
  
  <!-- Bottom right curved patterns -->
  <path class="pattern-line" d="M 374 480 Q 330 530 270 610 Q 250 660 300 740"/>
  <path class="pattern-line" d="M 320 520 Q 280 570 220 650 Q 190 710 250 780"/>
</svg>